<svg xmlns="http://www.w3.org/2000/svg" viewBox="0 0 80 80">
<path fill="#fff" d="M4.5 4.5H75.5V75.5H4.5z"/>
<path fill="#788b9c" d="M75,5v70H5V5H75 M76,4H4v72h72V4L76,4z"/>
<path fill="#f78f8f" d="M4.5 4.5H75.5V15.5H4.5z"/>
<path fill="#c74343" d="M75,5v10H5V5H75 M76,4H4v12h72V4L76,4z"/>
<path fill="#c5d4de" d="M26 28H30V32H26zM42 28H46V32H42zM50 28H54V32H50zM58 28H62V32H58zM18 36H22V40H18zM26 36H30V40H26zM42 36H46V40H42zM50 36H54V40H50zM58 36H62V40H58zM18 52H22V56H18zM26 52H30V56H26zM42 52H46V56H42zM34 28H38V32H34zM34 36H38V40H34zM18 44H22V48H18zM26 44H30V48H26zM42 44H46V48H42zM50 44H54V48H50zM58 44H62V48H58zM34 44H38V48H34zM34 52H38V56H34zM50 52H54V56H50z"/>
<path fill="#e1ebf2" d="M5 70H75V75H5z"/>
</svg>